<svg width="500" height="500" viewBox="0 0 500 500" fill="none" xmlns="http://www.w3.org/2000/svg">
<circle cx="250" cy="250" r="250" fill="#FFFFFF"/>
<g transform="translate(0,500) scale(0.100000,-0.100000)"
fill="#000000" stroke="none">
<path d="M3197 3913 c-4 -3 -7 -350 -7 -770 l0 -763 -275 0 c-151 0 -275 -3
-275 -8 0 -9 1273 -1282 1283 -1282 4 0 6 636 5 1413 l-3 1412 -361 3 c-198 1
-363 -1 -367 -5z"/>
<path d="M1072 2498 l3 -1413 363 -3 c239 -1 362 1 363 8 1 5 3 15 4 20 1 6 3
348 4 760 l1 750 275 0 c151 0 275 3 275 8 0 9 -1273 1282 -1283 1282 -4 0 -6
-636 -5 -1412z"/>
</g>
</svg>
